<svg width="309" height="45" viewBox="0 0 309 45" fill="none" xmlns="http://www.w3.org/2000/svg">
<path d="M51.816 14.1245V6.99609L75.2414 19.4093V24.9646L51.816 36.9599V29.807L67.941 22.2361V21.9903L51.816 14.1245Z" fill="white"/>
<path d="M34.6342 44.0382H27.9974L40.6073 0.948242H47.2195L34.6342 44.0382Z" fill="#9AC62F"/>
<path d="M23.4254 14.1491L7.27588 21.9903V22.2361L23.4254 29.8315V36.9845L0 24.9646V19.4339L23.4254 6.99609V14.1491Z" fill="#FFB700"/>
<path d="M121.557 36.6636H116.704L105.878 13.6432V36.6636H101.523V5.72088H106.334L117.201 28.7827V5.72088H121.557V36.6636ZM141.839 36.6636H137.443V34.7141C137.083 35.0736 136.627 35.4469 136.074 35.834C135.383 36.2765 134.595 36.6083 133.71 36.8295C132.825 37.0231 131.788 37.1199 130.599 37.1199C130.046 37.1199 129.382 36.9816 128.608 36.7051C127.861 36.4286 127.225 36.0276 126.7 35.5022C126.092 34.9768 125.635 34.3408 125.331 33.5942C125.027 32.8476 124.875 32.0042 124.875 31.064C124.875 29.3773 125.317 27.9117 126.202 26.6674C127.115 25.423 128.221 24.5796 129.52 24.1372C130.378 23.833 131.276 23.6118 132.217 23.4735C133.157 23.3353 133.945 23.2661 134.581 23.2661H137.443V21.8144C137.443 21.5932 137.387 21.2337 137.277 20.736C137.194 20.2106 137.014 19.7405 136.738 19.3257C136.489 18.9109 136.102 18.5653 135.576 18.2888C135.051 18.0122 134.415 17.874 133.668 17.874C132.728 17.874 131.912 18.1367 131.221 18.6621C130.557 19.1598 130.226 20.017 130.226 21.2337H125.373C125.373 20.017 125.525 19.0354 125.829 18.2888C126.161 17.5145 126.686 16.8232 127.405 16.2149C128.096 15.5789 128.981 15.0673 130.06 14.6802C131.166 14.2654 132.369 14.058 133.668 14.058C136.323 14.058 138.341 14.8046 139.724 16.2978C141.134 17.791 141.839 19.5746 141.839 21.6485V36.6636ZM137.443 28.368V26.8333C137.249 26.8333 136.765 26.8471 135.991 26.8748C135.217 26.8748 134.249 26.9715 133.088 27.1651C132.147 27.331 131.318 27.6767 130.599 28.2021C129.769 28.8934 129.355 29.7091 129.355 30.6493C129.355 31.6447 129.603 32.3499 130.101 32.7647C130.627 33.1518 131.276 33.3453 132.051 33.3453C132.355 33.3453 132.797 33.2762 133.378 33.138C133.959 32.9997 134.47 32.7785 134.913 32.4743C135.853 31.8383 136.572 31.064 137.069 30.1515C137.318 29.7091 137.443 29.1146 137.443 28.368ZM157.269 18.3717H151.919V29.1561C151.919 29.792 151.919 30.3727 151.919 30.8981C151.919 31.3959 152.015 31.8936 152.209 32.3913C152.347 32.6955 152.569 32.9306 152.873 33.0965C153.205 33.2347 153.675 33.3039 154.283 33.3039C154.864 33.3039 155.831 33.1794 157.186 32.9306V36.871C156.025 37.0369 154.808 37.1199 153.536 37.1199C151.545 37.1199 150.038 36.6359 149.015 35.6681C147.992 34.6726 147.481 33.3039 147.481 31.5618V18.3717H144.245V14.5972H147.481V9.99313L151.919 7.71183V14.5972H157.269V18.3717ZM164.901 11.0716H159.8V5.72088H164.901V11.0716ZM164.652 36.6636H160.131V14.5972H164.652V36.6636ZM186.719 14.5972L179.128 36.6636H175.354L167.017 14.5972H171.621L177.22 30.193L182.405 14.5972H186.719ZM192.526 23.4735H201.195C201.195 21.9527 200.946 20.653 200.448 19.5746C200.144 19.0769 199.743 18.6759 199.245 18.3717C198.748 18.0399 198.153 17.874 197.462 17.874C196.079 17.874 194.904 18.51 193.936 19.782C193.189 20.6945 192.719 21.925 192.526 23.4735ZM192.65 27.2481C192.733 27.7734 192.871 28.2988 193.065 28.8242C193.286 29.5155 193.632 30.193 194.102 30.8567C194.6 31.4927 195.222 32.0733 195.969 32.5987C196.217 32.7647 196.618 32.9306 197.171 33.0965C197.752 33.2347 198.43 33.3039 199.204 33.3039C199.757 33.3039 200.49 33.2209 201.402 33.055C202.315 32.8891 203.545 32.3637 205.094 31.4788V35.3778C203.739 36.2073 202.398 36.7327 201.07 36.9539C199.743 37.1752 198.416 37.2166 197.088 37.0784C195.927 36.9678 194.766 36.6359 193.604 36.0829C192.471 35.5022 191.544 34.8247 190.825 34.0505C189.996 33.055 189.291 31.8107 188.71 30.3174C188.157 28.8242 187.88 27.1098 187.88 25.1741C187.88 23.5703 188.088 22.1048 188.502 20.7775C188.917 19.4225 189.526 18.2611 190.327 17.2933C191.129 16.3255 192.125 15.5512 193.314 14.9705C194.503 14.3622 195.886 14.058 197.462 14.058C198.761 14.058 199.992 14.3483 201.153 14.929C202.315 15.4821 203.227 16.201 203.891 17.0859C205.108 18.6897 205.716 21.2475 205.716 24.7594V27.2481H192.65ZM243.917 15.0535C243.917 16.6573 243.599 18.0952 242.963 19.3672C242.327 20.6115 241.512 21.607 240.516 22.3536C239.493 23.0726 238.359 23.598 237.115 23.9298C235.898 24.234 234.585 24.3861 233.174 24.3861H230.686V20.1553H233.091C234.032 20.1553 234.861 20.0862 235.58 19.9479C236.327 19.8096 236.935 19.5331 237.405 19.1183C237.986 18.7035 238.456 18.1505 238.815 17.4592C239.203 16.7402 239.396 15.9383 239.396 15.0535C239.396 13.975 239.203 13.1178 238.815 12.4818C238.428 11.8458 237.958 11.3481 237.405 10.9886C236.852 10.5185 236.202 10.2005 235.456 10.0346C234.737 9.8687 234.045 9.78574 233.382 9.78574H229.773V36.6636H225.252V5.72088H233.299C234.626 5.72088 235.884 5.88679 237.073 6.21862C238.29 6.55044 239.396 7.03435 240.392 7.67035C241.47 8.36166 242.327 9.32948 242.963 10.5738C243.599 11.8182 243.917 13.3114 243.917 15.0535ZM251.466 36.6636H246.945V5.72088H251.466V36.6636ZM271.708 36.6636H267.311V34.7141C266.951 35.0736 266.495 35.4469 265.942 35.834C265.251 36.2765 264.463 36.6083 263.578 36.8295C262.693 37.0231 261.656 37.1199 260.467 37.1199C259.914 37.1199 259.25 36.9816 258.476 36.7051C257.73 36.4286 257.094 36.0276 256.568 35.5022C255.96 34.9768 255.504 34.3408 255.199 33.5942C254.895 32.8476 254.743 32.0042 254.743 31.064C254.743 29.3773 255.186 27.9117 256.07 26.6674C256.983 25.423 258.089 24.5796 259.389 24.1372C260.246 23.833 261.145 23.6118 262.085 23.4735C263.025 23.3353 263.813 23.2661 264.449 23.2661H267.311V21.8144C267.311 21.5932 267.256 21.2337 267.145 20.736C267.062 20.2106 266.882 19.7405 266.606 19.3257C266.357 18.9109 265.97 18.5653 265.444 18.2888C264.919 18.0122 264.283 17.874 263.536 17.874C262.596 17.874 261.781 18.1367 261.089 18.6621C260.426 19.1598 260.094 20.017 260.094 21.2337H255.241C255.241 20.017 255.393 19.0354 255.697 18.2888C256.029 17.5145 256.554 16.8232 257.273 16.2149C257.965 15.5789 258.849 15.0673 259.928 14.6802C261.034 14.2654 262.237 14.058 263.536 14.058C266.191 14.058 268.21 14.8046 269.592 16.2978C271.003 17.791 271.708 19.5746 271.708 21.6485V36.6636ZM267.311 28.368V26.8333C267.117 26.8333 266.633 26.8471 265.859 26.8748C265.085 26.8748 264.117 26.9715 262.956 27.1651C262.016 27.331 261.186 27.6767 260.467 28.2021C259.638 28.8934 259.223 29.7091 259.223 30.6493C259.223 31.6447 259.472 32.3499 259.969 32.7647C260.495 33.1518 261.145 33.3453 261.919 33.3453C262.223 33.3453 262.665 33.2762 263.246 33.138C263.827 32.9997 264.338 32.7785 264.781 32.4743C265.721 31.8383 266.44 31.064 266.938 30.1515C267.187 29.7091 267.311 29.1146 267.311 28.368ZM287.138 18.3717H281.787V29.1561C281.787 29.792 281.787 30.3727 281.787 30.8981C281.787 31.3959 281.884 31.8936 282.077 32.3913C282.215 32.6955 282.437 32.9306 282.741 33.0965C283.073 33.2347 283.543 33.3039 284.151 33.3039C284.732 33.3039 285.7 33.1794 287.055 32.9306V36.871C285.893 37.0369 284.677 37.1199 283.405 37.1199C281.414 37.1199 279.907 36.6359 278.883 35.6681C277.86 34.6726 277.349 33.3039 277.349 31.5618V18.3717H274.113V14.5972H277.349V9.99313L281.787 7.71183V14.5972H287.138V18.3717ZM293.442 23.4735H302.111C302.111 21.9527 301.862 20.653 301.365 19.5746C301.06 19.0769 300.659 18.6759 300.162 18.3717C299.664 18.0399 299.069 17.874 298.378 17.874C296.996 17.874 295.82 18.51 294.852 19.782C294.106 20.6945 293.636 21.925 293.442 23.4735ZM293.567 27.2481C293.65 27.7734 293.788 28.2988 293.981 28.8242C294.203 29.5155 294.548 30.193 295.018 30.8567C295.516 31.4927 296.138 32.0733 296.885 32.5987C297.134 32.7647 297.535 32.9306 298.088 33.0965C298.668 33.2347 299.346 33.3039 300.12 33.3039C300.673 33.3039 301.406 33.2209 302.319 33.055C303.231 32.8891 304.462 32.3637 306.01 31.4788V35.3778C304.655 36.2073 303.314 36.7327 301.987 36.9539C300.659 37.1752 299.332 37.2166 298.005 37.0784C296.843 36.9678 295.682 36.6359 294.521 36.0829C293.387 35.5022 292.461 34.8247 291.742 34.0505C290.912 33.055 290.207 31.8107 289.626 30.3174C289.073 28.8242 288.797 27.1098 288.797 25.1741C288.797 23.5703 289.004 22.1048 289.419 20.7775C289.834 19.4225 290.442 18.2611 291.244 17.2933C292.046 16.3255 293.041 15.5512 294.23 14.9705C295.419 14.3622 296.802 14.058 298.378 14.058C299.678 14.058 300.908 14.3483 302.07 14.929C303.231 15.4821 304.144 16.201 304.807 17.0859C306.024 18.6897 306.632 21.2475 306.632 24.7594V27.2481H293.567Z" fill="white"/>
<path d="M221.685 23.1002H208.08V18.8695H221.685V23.1002Z" fill="#DC3D43"/>
</svg>
