<svg width="126" height="20" viewBox="0 0 126 20" fill="none" xmlns="http://www.w3.org/2000/svg">
<path d="M22.0725 6.45297V3.43201L32 8.69265V11.0469L22.0725 16.1304V13.0991L28.9061 9.89061V9.78644L22.0725 6.45297Z" fill="white"/>
<path d="M14.791 19.1306H11.9784L17.3223 0.869415H20.1245L14.791 19.1306Z" fill="#DC3D43"/>
<path d="M10.0408 6.46339L3.19674 9.78644V9.89061L10.0408 13.1095V16.1409L0.113281 11.0469V8.70306L10.0408 3.43201V6.46339Z" fill="#FFB700"/>
<path d="M46.457 15.6484H44.4004L39.8125 5.89258V15.6484H37.9668V2.53516H40.0059L44.6113 12.3086V2.53516H46.457V15.6484ZM55.0527 15.6484H53.1895V14.8223C53.0371 14.9746 52.8438 15.1328 52.6094 15.2969C52.3164 15.4844 51.9824 15.625 51.6074 15.7188C51.2324 15.8008 50.793 15.8418 50.2891 15.8418C50.0547 15.8418 49.7734 15.7832 49.4453 15.666C49.1289 15.5488 48.8594 15.3789 48.6367 15.1562C48.3789 14.9336 48.1855 14.6641 48.0566 14.3477C47.9277 14.0312 47.8633 13.6738 47.8633 13.2754C47.8633 12.5605 48.0508 11.9395 48.4258 11.4121C48.8125 10.8848 49.2812 10.5273 49.832 10.3398C50.1953 10.2109 50.5762 10.1172 50.9746 10.0586C51.373 10 51.707 9.9707 51.9766 9.9707H53.1895V9.35547C53.1895 9.26172 53.166 9.10938 53.1191 8.89844C53.084 8.67578 53.0078 8.47656 52.8906 8.30078C52.7852 8.125 52.6211 7.97852 52.3984 7.86133C52.1758 7.74414 51.9062 7.68555 51.5898 7.68555C51.1914 7.68555 50.8457 7.79688 50.5527 8.01953C50.2715 8.23047 50.1309 8.59375 50.1309 9.10938H48.0742C48.0742 8.59375 48.1387 8.17773 48.2676 7.86133C48.4082 7.5332 48.6309 7.24023 48.9355 6.98242C49.2285 6.71289 49.6035 6.49609 50.0605 6.33203C50.5293 6.15625 51.0391 6.06836 51.5898 6.06836C52.7148 6.06836 53.5703 6.38477 54.1562 7.01758C54.7539 7.65039 55.0527 8.40625 55.0527 9.28516V15.6484ZM53.1895 12.1328V11.4824C53.1074 11.4824 52.9023 11.4883 52.5742 11.5C52.2461 11.5 51.8359 11.541 51.3438 11.623C50.9453 11.6934 50.5938 11.8398 50.2891 12.0625C49.9375 12.3555 49.7617 12.7012 49.7617 13.0996C49.7617 13.5215 49.8672 13.8203 50.0781 13.9961C50.3008 14.1602 50.5762 14.2422 50.9043 14.2422C51.0332 14.2422 51.2207 14.2129 51.4668 14.1543C51.7129 14.0957 51.9297 14.002 52.1172 13.873C52.5156 13.6035 52.8203 13.2754 53.0312 12.8887C53.1367 12.7012 53.1895 12.4492 53.1895 12.1328ZM61.5918 7.89648H59.3242V12.4668C59.3242 12.7363 59.3242 12.9824 59.3242 13.2051C59.3242 13.416 59.3652 13.627 59.4473 13.8379C59.5059 13.9668 59.5996 14.0664 59.7285 14.1367C59.8691 14.1953 60.0684 14.2246 60.3262 14.2246C60.5723 14.2246 60.9824 14.1719 61.5566 14.0664V15.7363C61.0645 15.8066 60.5488 15.8418 60.0098 15.8418C59.166 15.8418 58.5273 15.6367 58.0938 15.2266C57.6602 14.8047 57.4434 14.2246 57.4434 13.4863V7.89648H56.0723V6.29688H57.4434V4.3457L59.3242 3.37891V6.29688H61.5918V7.89648ZM64.8262 4.80273H62.6641V2.53516H64.8262V4.80273ZM64.7207 15.6484H62.8047V6.29688H64.7207V15.6484ZM74.0723 6.29688L70.8555 15.6484H69.2559L65.7227 6.29688H67.6738L70.0469 12.9062L72.2441 6.29688H74.0723ZM76.5332 10.0586H80.207C80.207 9.41406 80.1016 8.86328 79.8906 8.40625C79.7617 8.19531 79.5918 8.02539 79.3809 7.89648C79.1699 7.75586 78.918 7.68555 78.625 7.68555C78.0391 7.68555 77.541 7.95508 77.1309 8.49414C76.8145 8.88086 76.6152 9.40234 76.5332 10.0586ZM76.5859 11.6582C76.6211 11.8809 76.6797 12.1035 76.7617 12.3262C76.8555 12.6191 77.002 12.9062 77.2012 13.1875C77.4121 13.457 77.6758 13.7031 77.9922 13.9258C78.0977 13.9961 78.2676 14.0664 78.502 14.1367C78.748 14.1953 79.0352 14.2246 79.3633 14.2246C79.5977 14.2246 79.9082 14.1895 80.2949 14.1191C80.6816 14.0488 81.2031 13.8262 81.8594 13.4512V15.1035C81.2852 15.4551 80.7168 15.6777 80.1543 15.7715C79.5918 15.8652 79.0293 15.8828 78.4668 15.8242C77.9746 15.7773 77.4824 15.6367 76.9902 15.4023C76.5098 15.1562 76.1172 14.8691 75.8125 14.541C75.4609 14.1191 75.1621 13.5918 74.916 12.959C74.6816 12.3262 74.5645 11.5996 74.5645 10.7793C74.5645 10.0996 74.6523 9.47852 74.8281 8.91602C75.0039 8.3418 75.2617 7.84961 75.6016 7.43945C75.9414 7.0293 76.3633 6.70117 76.8672 6.45508C77.3711 6.19727 77.957 6.06836 78.625 6.06836C79.1758 6.06836 79.6973 6.19141 80.1895 6.4375C80.6816 6.67188 81.0684 6.97656 81.3496 7.35156C81.8652 8.03125 82.123 9.11523 82.123 10.6035V11.6582H76.5859ZM98.3125 6.49023C98.3125 7.16992 98.1777 7.7793 97.9082 8.31836C97.6387 8.8457 97.293 9.26758 96.8711 9.58398C96.4375 9.88867 95.957 10.1113 95.4297 10.252C94.9141 10.3809 94.3574 10.4453 93.7598 10.4453H92.7051V8.65234H93.7246C94.123 8.65234 94.4746 8.62305 94.7793 8.56445C95.0957 8.50586 95.3535 8.38867 95.5527 8.21289C95.7988 8.03711 95.998 7.80273 96.1504 7.50977C96.3145 7.20508 96.3965 6.86523 96.3965 6.49023C96.3965 6.0332 96.3145 5.66992 96.1504 5.40039C95.9863 5.13086 95.7871 4.91992 95.5527 4.76758C95.3184 4.56836 95.043 4.43359 94.7266 4.36328C94.4219 4.29297 94.1289 4.25781 93.8477 4.25781H92.3184V15.6484H90.4023V2.53516H93.8125C94.375 2.53516 94.9082 2.60547 95.4121 2.74609C95.9277 2.88672 96.3965 3.0918 96.8184 3.36133C97.2754 3.6543 97.6387 4.06445 97.9082 4.5918C98.1777 5.11914 98.3125 5.75195 98.3125 6.49023ZM101.512 15.6484H99.5957V2.53516H101.512V15.6484ZM110.09 15.6484H108.227V14.8223C108.074 14.9746 107.881 15.1328 107.646 15.2969C107.354 15.4844 107.02 15.625 106.645 15.7188C106.27 15.8008 105.83 15.8418 105.326 15.8418C105.092 15.8418 104.811 15.7832 104.482 15.666C104.166 15.5488 103.896 15.3789 103.674 15.1562C103.416 14.9336 103.223 14.6641 103.094 14.3477C102.965 14.0312 102.9 13.6738 102.9 13.2754C102.9 12.5605 103.088 11.9395 103.463 11.4121C103.85 10.8848 104.318 10.5273 104.869 10.3398C105.232 10.2109 105.613 10.1172 106.012 10.0586C106.41 10 106.744 9.9707 107.014 9.9707H108.227V9.35547C108.227 9.26172 108.203 9.10938 108.156 8.89844C108.121 8.67578 108.045 8.47656 107.928 8.30078C107.822 8.125 107.658 7.97852 107.436 7.86133C107.213 7.74414 106.943 7.68555 106.627 7.68555C106.229 7.68555 105.883 7.79688 105.59 8.01953C105.309 8.23047 105.168 8.59375 105.168 9.10938H103.111C103.111 8.59375 103.176 8.17773 103.305 7.86133C103.445 7.5332 103.668 7.24023 103.973 6.98242C104.266 6.71289 104.641 6.49609 105.098 6.33203C105.566 6.15625 106.076 6.06836 106.627 6.06836C107.752 6.06836 108.607 6.38477 109.193 7.01758C109.791 7.65039 110.09 8.40625 110.09 9.28516V15.6484ZM108.227 12.1328V11.4824C108.145 11.4824 107.939 11.4883 107.611 11.5C107.283 11.5 106.873 11.541 106.381 11.623C105.982 11.6934 105.631 11.8398 105.326 12.0625C104.975 12.3555 104.799 12.7012 104.799 13.0996C104.799 13.5215 104.904 13.8203 105.115 13.9961C105.338 14.1602 105.613 14.2422 105.941 14.2422C106.07 14.2422 106.258 14.2129 106.504 14.1543C106.75 14.0957 106.967 14.002 107.154 13.873C107.553 13.6035 107.857 13.2754 108.068 12.8887C108.174 12.7012 108.227 12.4492 108.227 12.1328ZM116.629 7.89648H114.361V12.4668C114.361 12.7363 114.361 12.9824 114.361 13.2051C114.361 13.416 114.402 13.627 114.484 13.8379C114.543 13.9668 114.637 14.0664 114.766 14.1367C114.906 14.1953 115.105 14.2246 115.363 14.2246C115.609 14.2246 116.02 14.1719 116.594 14.0664V15.7363C116.102 15.8066 115.586 15.8418 115.047 15.8418C114.203 15.8418 113.564 15.6367 113.131 15.2266C112.697 14.8047 112.48 14.2246 112.48 13.4863V7.89648H111.109V6.29688H112.48V4.3457L114.361 3.37891V6.29688H116.629V7.89648ZM119.301 10.0586H122.975C122.975 9.41406 122.869 8.86328 122.658 8.40625C122.529 8.19531 122.359 8.02539 122.148 7.89648C121.938 7.75586 121.686 7.68555 121.393 7.68555C120.807 7.68555 120.309 7.95508 119.898 8.49414C119.582 8.88086 119.383 9.40234 119.301 10.0586ZM119.354 11.6582C119.389 11.8809 119.447 12.1035 119.529 12.3262C119.623 12.6191 119.77 12.9062 119.969 13.1875C120.18 13.457 120.443 13.7031 120.76 13.9258C120.865 13.9961 121.035 14.0664 121.27 14.1367C121.516 14.1953 121.803 14.2246 122.131 14.2246C122.365 14.2246 122.676 14.1895 123.062 14.1191C123.449 14.0488 123.971 13.8262 124.627 13.4512V15.1035C124.053 15.4551 123.484 15.6777 122.922 15.7715C122.359 15.8652 121.797 15.8828 121.234 15.8242C120.742 15.7773 120.25 15.6367 119.758 15.4023C119.277 15.1562 118.885 14.8691 118.58 14.541C118.229 14.1191 117.93 13.5918 117.684 12.959C117.449 12.3262 117.332 11.5996 117.332 10.7793C117.332 10.0996 117.42 9.47852 117.596 8.91602C117.771 8.3418 118.029 7.84961 118.369 7.43945C118.709 7.0293 119.131 6.70117 119.635 6.45508C120.139 6.19727 120.725 6.06836 121.393 6.06836C121.943 6.06836 122.465 6.19141 122.957 6.4375C123.449 6.67188 123.836 6.97656 124.117 7.35156C124.633 8.03125 124.891 9.11523 124.891 10.6035V11.6582H119.354Z" fill="white"/>
<path d="M88.8906 9.90039H83.125V8.10742H88.8906V9.90039Z" fill="#DC3D43"/>
</svg>
