<svg width="126" height="19" viewBox="0 0 126 19" fill="none" xmlns="http://www.w3.org/2000/svg">
<path d="M21.9609 5.58356V2.56261L31.8884 7.82324V10.1775L21.9609 15.261V12.2297L28.7945 9.0212V8.91703L21.9609 5.58356Z" fill="white"/>
<path d="M14.6798 18.2612H11.8672L17.2112 0H20.0134L14.6798 18.2612Z" fill="#DC3D43"/>
<path d="M9.92749 5.59398L3.08346 8.91703V9.0212L9.92749 12.2401V15.2715L0 10.1775V7.83366L9.92749 2.56261V5.59398Z" fill="#FFB700"/>
<path d="M46.3477 14.779H44.291L39.7031 5.02316V14.779H37.8574V1.66574H39.8965L44.502 11.4392V1.66574H46.3477V14.779ZM54.9434 14.779H53.0801V13.9529C52.9277 14.1052 52.7344 14.2634 52.5 14.4275C52.207 14.615 51.873 14.7556 51.498 14.8493C51.123 14.9314 50.6836 14.9724 50.1797 14.9724C49.9453 14.9724 49.6641 14.9138 49.3359 14.7966C49.0195 14.6794 48.75 14.5095 48.5273 14.2868C48.2695 14.0642 48.0762 13.7946 47.9473 13.4782C47.8184 13.1618 47.7539 12.8044 47.7539 12.406C47.7539 11.6911 47.9414 11.07 48.3164 10.5427C48.7031 10.0154 49.1719 9.65793 49.7227 9.47043C50.0859 9.34152 50.4668 9.24777 50.8652 9.18918C51.2637 9.13058 51.5977 9.10129 51.8672 9.10129H53.0801V8.48605C53.0801 8.3923 53.0566 8.23996 53.0098 8.02902C52.9746 7.80637 52.8984 7.60715 52.7812 7.43137C52.6758 7.25558 52.5117 7.1091 52.2891 6.99191C52.0664 6.87473 51.7969 6.81613 51.4805 6.81613C51.082 6.81613 50.7363 6.92746 50.4434 7.15012C50.1621 7.36105 50.0215 7.72433 50.0215 8.23996H47.9648C47.9648 7.72433 48.0293 7.30832 48.1582 6.99191C48.2988 6.66379 48.5215 6.37082 48.8262 6.11301C49.1191 5.84348 49.4941 5.62668 49.9512 5.46262C50.4199 5.28683 50.9297 5.19894 51.4805 5.19894C52.6055 5.19894 53.4609 5.51535 54.0469 6.14816C54.6445 6.78098 54.9434 7.53683 54.9434 8.41574V14.779ZM53.0801 11.2634V10.613C52.998 10.613 52.793 10.6189 52.4648 10.6306C52.1367 10.6306 51.7266 10.6716 51.2344 10.7536C50.8359 10.8239 50.4844 10.9704 50.1797 11.1931C49.8281 11.4861 49.6523 11.8318 49.6523 12.2302C49.6523 12.6521 49.7578 12.9509 49.9688 13.1267C50.1914 13.2907 50.4668 13.3728 50.7949 13.3728C50.9238 13.3728 51.1113 13.3435 51.3574 13.2849C51.6035 13.2263 51.8203 13.1325 52.0078 13.0036C52.4062 12.7341 52.7109 12.406 52.9219 12.0193C53.0273 11.8318 53.0801 11.5798 53.0801 11.2634ZM61.4824 7.02707H59.2148V11.5974C59.2148 11.8669 59.2148 12.113 59.2148 12.3357C59.2148 12.5466 59.2559 12.7575 59.3379 12.9685C59.3965 13.0974 59.4902 13.197 59.6191 13.2673C59.7598 13.3259 59.959 13.3552 60.2168 13.3552C60.4629 13.3552 60.873 13.3025 61.4473 13.197V14.8669C60.9551 14.9372 60.4395 14.9724 59.9004 14.9724C59.0566 14.9724 58.418 14.7673 57.9844 14.3571C57.5508 13.9353 57.334 13.3552 57.334 12.6169V7.02707H55.9629V5.42746H57.334V3.47629L59.2148 2.50949V5.42746H61.4824V7.02707ZM64.7168 3.93332H62.5547V1.66574H64.7168V3.93332ZM64.6113 14.779H62.6953V5.42746H64.6113V14.779ZM73.9629 5.42746L70.7461 14.779H69.1465L65.6133 5.42746H67.5645L69.9375 12.0368L72.1348 5.42746H73.9629ZM76.4238 9.18918H80.0977C80.0977 8.54465 79.9922 7.99387 79.7812 7.53683C79.6523 7.3259 79.4824 7.15598 79.2715 7.02707C79.0605 6.88644 78.8086 6.81613 78.5156 6.81613C77.9297 6.81613 77.4316 7.08566 77.0215 7.62473C76.7051 8.01144 76.5059 8.53293 76.4238 9.18918ZM76.4766 10.7888C76.5117 11.0114 76.5703 11.2341 76.6523 11.4568C76.7461 11.7497 76.8926 12.0368 77.0918 12.3181C77.3027 12.5876 77.5664 12.8337 77.8828 13.0564C77.9883 13.1267 78.1582 13.197 78.3926 13.2673C78.6387 13.3259 78.9258 13.3552 79.2539 13.3552C79.4883 13.3552 79.7988 13.32 80.1855 13.2497C80.5723 13.1794 81.0938 12.9568 81.75 12.5818V14.2341C81.1758 14.5857 80.6074 14.8083 80.0449 14.9021C79.4824 14.9958 78.9199 15.0134 78.3574 14.9548C77.8652 14.9079 77.373 14.7673 76.8809 14.5329C76.4004 14.2868 76.0078 13.9997 75.7031 13.6716C75.3516 13.2497 75.0527 12.7224 74.8066 12.0896C74.5723 11.4568 74.4551 10.7302 74.4551 9.90988C74.4551 9.23019 74.543 8.6091 74.7188 8.0466C74.8945 7.47238 75.1523 6.98019 75.4922 6.57004C75.832 6.15988 76.2539 5.83176 76.7578 5.58566C77.2617 5.32785 77.8477 5.19894 78.5156 5.19894C79.0664 5.19894 79.5879 5.32199 80.0801 5.56808C80.5723 5.80246 80.959 6.10715 81.2402 6.48215C81.7559 7.16183 82.0137 8.24582 82.0137 9.7341V10.7888H76.4766ZM98.2031 5.62082C98.2031 6.30051 98.0684 6.90988 97.7988 7.44894C97.5293 7.97629 97.1836 8.39816 96.7617 8.71457C96.3281 9.01926 95.8477 9.24191 95.3203 9.38254C94.8047 9.51144 94.248 9.5759 93.6504 9.5759H92.5957V7.78293H93.6152C94.0137 7.78293 94.3652 7.75363 94.6699 7.69504C94.9863 7.63644 95.2441 7.51926 95.4434 7.34348C95.6895 7.16769 95.8887 6.93332 96.041 6.64035C96.2051 6.33566 96.2871 5.99582 96.2871 5.62082C96.2871 5.16379 96.2051 4.80051 96.041 4.53098C95.877 4.26144 95.6777 4.05051 95.4434 3.89816C95.209 3.69894 94.9336 3.56418 94.6172 3.49387C94.3125 3.42355 94.0195 3.3884 93.7383 3.3884H92.209V14.779H90.293V1.66574H93.7031C94.2656 1.66574 94.7988 1.73605 95.3027 1.87668C95.8184 2.0173 96.2871 2.22238 96.709 2.49191C97.166 2.78488 97.5293 3.19504 97.7988 3.72238C98.0684 4.24973 98.2031 4.88254 98.2031 5.62082ZM101.402 14.779H99.4863V1.66574H101.402V14.779ZM109.98 14.779H108.117V13.9529C107.965 14.1052 107.771 14.2634 107.537 14.4275C107.244 14.615 106.91 14.7556 106.535 14.8493C106.16 14.9314 105.721 14.9724 105.217 14.9724C104.982 14.9724 104.701 14.9138 104.373 14.7966C104.057 14.6794 103.787 14.5095 103.564 14.2868C103.307 14.0642 103.113 13.7946 102.984 13.4782C102.855 13.1618 102.791 12.8044 102.791 12.406C102.791 11.6911 102.979 11.07 103.354 10.5427C103.74 10.0154 104.209 9.65793 104.76 9.47043C105.123 9.34152 105.504 9.24777 105.902 9.18918C106.301 9.13058 106.635 9.10129 106.904 9.10129H108.117V8.48605C108.117 8.3923 108.094 8.23996 108.047 8.02902C108.012 7.80637 107.936 7.60715 107.818 7.43137C107.713 7.25558 107.549 7.1091 107.326 6.99191C107.104 6.87473 106.834 6.81613 106.518 6.81613C106.119 6.81613 105.773 6.92746 105.48 7.15012C105.199 7.36105 105.059 7.72433 105.059 8.23996H103.002C103.002 7.72433 103.066 7.30832 103.195 6.99191C103.336 6.66379 103.559 6.37082 103.863 6.11301C104.156 5.84348 104.531 5.62668 104.988 5.46262C105.457 5.28683 105.967 5.19894 106.518 5.19894C107.643 5.19894 108.498 5.51535 109.084 6.14816C109.682 6.78098 109.98 7.53683 109.98 8.41574V14.779ZM108.117 11.2634V10.613C108.035 10.613 107.83 10.6189 107.502 10.6306C107.174 10.6306 106.764 10.6716 106.271 10.7536C105.873 10.8239 105.521 10.9704 105.217 11.1931C104.865 11.4861 104.689 11.8318 104.689 12.2302C104.689 12.6521 104.795 12.9509 105.006 13.1267C105.229 13.2907 105.504 13.3728 105.832 13.3728C105.961 13.3728 106.148 13.3435 106.395 13.2849C106.641 13.2263 106.857 13.1325 107.045 13.0036C107.443 12.7341 107.748 12.406 107.959 12.0193C108.064 11.8318 108.117 11.5798 108.117 11.2634ZM116.52 7.02707H114.252V11.5974C114.252 11.8669 114.252 12.113 114.252 12.3357C114.252 12.5466 114.293 12.7575 114.375 12.9685C114.434 13.0974 114.527 13.197 114.656 13.2673C114.797 13.3259 114.996 13.3552 115.254 13.3552C115.5 13.3552 115.91 13.3025 116.484 13.197V14.8669C115.992 14.9372 115.477 14.9724 114.938 14.9724C114.094 14.9724 113.455 14.7673 113.021 14.3571C112.588 13.9353 112.371 13.3552 112.371 12.6169V7.02707H111V5.42746H112.371V3.47629L114.252 2.50949V5.42746H116.52V7.02707ZM119.191 9.18918H122.865C122.865 8.54465 122.76 7.99387 122.549 7.53683C122.42 7.3259 122.25 7.15598 122.039 7.02707C121.828 6.88644 121.576 6.81613 121.283 6.81613C120.697 6.81613 120.199 7.08566 119.789 7.62473C119.473 8.01144 119.273 8.53293 119.191 9.18918ZM119.244 10.7888C119.279 11.0114 119.338 11.2341 119.42 11.4568C119.514 11.7497 119.66 12.0368 119.859 12.3181C120.07 12.5876 120.334 12.8337 120.65 13.0564C120.756 13.1267 120.926 13.197 121.16 13.2673C121.406 13.3259 121.693 13.3552 122.021 13.3552C122.256 13.3552 122.566 13.32 122.953 13.2497C123.34 13.1794 123.861 12.9568 124.518 12.5818V14.2341C123.943 14.5857 123.375 14.8083 122.812 14.9021C122.25 14.9958 121.688 15.0134 121.125 14.9548C120.633 14.9079 120.141 14.7673 119.648 14.5329C119.168 14.2868 118.775 13.9997 118.471 13.6716C118.119 13.2497 117.82 12.7224 117.574 12.0896C117.34 11.4568 117.223 10.7302 117.223 9.90988C117.223 9.23019 117.311 8.6091 117.486 8.0466C117.662 7.47238 117.92 6.98019 118.26 6.57004C118.6 6.15988 119.021 5.83176 119.525 5.58566C120.029 5.32785 120.615 5.19894 121.283 5.19894C121.834 5.19894 122.355 5.32199 122.848 5.56808C123.34 5.80246 123.727 6.10715 124.008 6.48215C124.523 7.16183 124.781 8.24582 124.781 9.7341V10.7888H119.244Z" fill="white"/>
<path d="M88.7812 9.03098H83.0156V7.23801H88.7812V9.03098Z" fill="#DC3D43"/>
</svg>
