<svg width="22" height="23" viewBox="0 0 22 23" fill="none" xmlns="http://www.w3.org/2000/svg">
<path d="M9.73074 1.9908C10.4685 1.38497 11.5315 1.38497 12.2693 1.9908L13.2158 2.76811C13.6051 3.08777 14.1006 3.24878 14.6034 3.21898L15.8261 3.14649C16.7791 3.09 17.6391 3.71484 17.8798 4.6386L18.1887 5.82384C18.3158 6.31125 18.622 6.73279 19.0463 7.00422L20.0781 7.66425C20.8823 8.17867 21.2108 9.18969 20.8626 10.0785L20.4158 11.219C20.2321 11.688 20.2321 12.209 20.4158 12.678L20.8626 13.8184C21.2108 14.7073 20.8822 15.7183 20.0781 16.2327L19.0463 16.8928C18.622 17.1642 18.3158 17.5857 18.1887 18.0731L17.8798 19.2584C17.6391 20.1821 16.7791 20.807 15.8261 20.7505L14.6034 20.678C14.1006 20.6482 13.6051 20.8092 13.2158 21.1289L12.2693 21.9062C11.5315 22.512 10.4685 22.512 9.73074 21.9062L8.78417 21.1289C8.39491 20.8092 7.89936 20.6482 7.39655 20.678L6.17387 20.7505C5.22093 20.807 4.36091 20.1821 4.12016 19.2584L3.81127 18.0731C3.68424 17.5857 3.37798 17.1642 2.95367 16.8928L1.9219 16.2327C1.11775 15.7183 0.789249 14.7073 1.13745 13.8184L1.58422 12.678C1.76794 12.209 1.76794 11.688 1.58422 11.219L1.13745 10.0785C0.789249 9.18969 1.11775 8.17867 1.9219 7.66425L2.95367 7.00422C3.37798 6.73279 3.68424 6.31125 3.81127 5.82384L4.12016 4.6386C4.36091 3.71484 5.22093 3.09 6.17387 3.14649L7.39655 3.21898C7.89936 3.24878 8.39491 3.08777 8.78417 2.76811L9.73074 1.9908Z" fill="#9AC62F"/>
<path d="M6.875 12.8972L9.08875 15.111L15.0012 9.19849" stroke="white" stroke-width="1.5" stroke-linecap="round" stroke-linejoin="round"/>
</svg>
