<svg width="19" height="20" viewBox="0 0 19 20" fill="none" xmlns="http://www.w3.org/2000/svg">
<path d="M17.3828 9.94824C17.3828 8.83105 16.6953 7.8623 15.6719 7.33887C16.0312 6.25293 15.8281 5.07324 15.0391 4.28418C14.25 3.49512 13.0703 3.29199 11.9844 3.65137C11.4688 2.62793 10.4922 1.94043 9.375 1.94043C8.25781 1.94043 7.28906 2.62793 6.77344 3.65137C5.67969 3.29199 4.5 3.49512 3.71094 4.28418C2.92188 5.07324 2.72656 6.25293 3.08594 7.33887C2.0625 7.8623 1.36719 8.83105 1.36719 9.94824C1.36719 11.0654 2.0625 12.0342 3.08594 12.5576C2.72656 13.6436 2.92188 14.8232 3.71094 15.6123C4.5 16.4014 5.67969 16.5967 6.76562 16.2451C7.28906 17.2686 8.25781 17.9561 9.375 17.9561C10.4922 17.9561 11.4688 17.2686 11.9844 16.2451C13.0703 16.5967 14.25 16.4014 15.0391 15.6123C15.8281 14.8232 16.0312 13.6436 15.6719 12.5576C16.6953 12.0342 17.3828 11.0654 17.3828 9.94824ZM8.23438 13.2295L5.3125 10.3076L6.41406 9.19824L8.17969 10.9639L11.9297 6.87793L13.0781 7.94043L8.23438 13.2295Z" fill="white"/>
</svg>
