<svg width="19" height="19" viewBox="0 0 19 19" fill="none" xmlns="http://www.w3.org/2000/svg">
<path d="M17.7234 3.83329L17.7231 3.8331C17.3617 3.50817 16.865 3.3168 16.0348 3.21652C15.1953 3.11512 14.0929 3.11426 12.5629 3.11426H9.34404C7.81351 3.11426 6.71114 3.11512 5.8716 3.21652C5.04165 3.31677 4.54482 3.50807 4.18272 3.8331L17.7234 3.83329ZM17.7234 3.83329C18.0777 4.15147 18.2803 4.57729 18.3883 5.29869C18.4994 6.04048 18.5007 7.01857 18.5007 8.39726V13.2173C18.5007 14.596 18.4994 15.574 18.3883 16.3158C18.2803 17.0372 18.0777 17.463 17.7234 17.7812L17.7231 17.7814M17.7234 3.83329L17.7231 17.7814M17.7231 17.7814C17.3617 18.1063 16.865 18.2977 16.0348 18.398C15.1953 18.4994 14.0929 18.5003 12.5629 18.5003H9.34404C7.81351 18.5003 6.71114 18.4994 5.8716 18.398C5.04148 18.2977 4.54462 18.1064 4.1825 17.7812C3.82824 17.4631 3.6259 17.0374 3.51812 16.316C3.40728 15.5741 3.40625 14.5961 3.40625 13.2173V8.39726C3.40625 7.01858 3.40756 6.04045 3.51852 5.2986M17.7231 17.7814L3.51852 5.2986M3.51852 5.2986C3.62644 4.57715 3.82879 4.15131 4.18263 3.83318L3.51852 5.2986Z" stroke="white"/>
<path d="M1.64315 1.54477L1.64346 1.54448C2.18821 1.05667 2.92427 0.783878 4.09565 0.642919C5.27622 0.500854 6.82132 0.5 8.94138 0.5C11.0614 0.5 12.6065 0.500854 13.7871 0.642919C14.9585 0.783878 15.6945 1.05667 16.2393 1.54448L16.2395 1.54462C16.6874 1.94538 16.9666 2.45515 17.1365 3.20802C16.2477 3.11396 15.1374 3.11398 13.7459 3.114L13.6803 3.114H10.4614H10.4268C8.93831 3.11399 7.77556 3.11399 6.86905 3.22348C5.9461 3.33496 5.21296 3.56711 4.63177 4.08896L4.63155 4.08916C4.04325 4.61802 3.77452 5.29717 3.6469 6.15041C3.5236 6.97472 3.52361 8.02771 3.52362 9.35542L3.52362 9.397V14.216L3.52362 14.2944C3.52357 15.5031 3.52354 16.4897 3.62364 17.289C2.71949 17.1346 2.11105 16.8745 1.64361 16.4556L1.64315 16.4552C1.10589 15.975 0.811949 15.3376 0.658184 14.3147C0.501321 13.2712 0.5 11.9013 0.5 10V8C0.5 6.09875 0.501321 4.72883 0.658184 3.68533C0.811949 2.66243 1.10589 2.02505 1.64315 1.54477Z" stroke="white"/>
</svg>
