<svg width="100" height="21" viewBox="0 0 100 21" fill="none" xmlns="http://www.w3.org/2000/svg">
<path fill-rule="evenodd" clip-rule="evenodd" d="M10.868 3.83242C10.547 3.06042 9.45301 3.06042 9.13201 3.83242L7.30201 8.23342L2.54901 8.61442C1.71601 8.68142 1.37801 9.72142 2.01301 10.2654L5.63301 13.3674L4.52701 18.0044C4.33301 18.8174 5.21801 19.4604 5.93201 19.0244L10 16.5394L14.069 19.0244C14.782 19.4604 15.667 18.8174 15.473 18.0044L14.367 13.3674L17.987 10.2654C18.622 9.72142 18.284 8.68142 17.451 8.61542L12.699 8.23342L10.868 3.83242Z" fill="#A5E31F"/>
<path fill-rule="evenodd" clip-rule="evenodd" d="M30.868 3.83242C30.547 3.06042 29.453 3.06042 29.132 3.83242L27.302 8.23342L22.549 8.61442C21.716 8.68142 21.378 9.72142 22.013 10.2654L25.633 13.3674L24.527 18.0044C24.333 18.8174 25.218 19.4604 25.932 19.0244L30 16.5394L34.069 19.0244C34.782 19.4604 35.667 18.8174 35.473 18.0044L34.367 13.3674L37.987 10.2654C38.622 9.72142 38.284 8.68142 37.451 8.61542L32.699 8.23342L30.868 3.83242Z" fill="#A5E31F"/>
<path fill-rule="evenodd" clip-rule="evenodd" d="M50.868 3.83242C50.547 3.06042 49.453 3.06042 49.132 3.83242L47.302 8.23342L42.549 8.61442C41.716 8.68142 41.378 9.72142 42.013 10.2654L45.633 13.3674L44.527 18.0044C44.333 18.8174 45.218 19.4604 45.932 19.0244L50 16.5394L54.069 19.0244C54.782 19.4604 55.667 18.8174 55.473 18.0044L54.367 13.3674L57.987 10.2654C58.622 9.72142 58.284 8.68142 57.451 8.61542L52.699 8.23342L50.868 3.83242Z" fill="#A5E31F"/>
<path fill-rule="evenodd" clip-rule="evenodd" d="M70.868 3.83242C70.547 3.06042 69.453 3.06042 69.132 3.83242L67.302 8.23342L62.549 8.61442C61.716 8.68142 61.378 9.72142 62.013 10.2654L65.633 13.3674L64.527 18.0044C64.333 18.8174 65.218 19.4604 65.932 19.0244L70 16.5394L74.069 19.0244C74.782 19.4604 75.667 18.8174 75.473 18.0044L74.367 13.3674L77.987 10.2654C78.622 9.72142 78.284 8.68142 77.451 8.61542L72.699 8.23342L70.868 3.83242Z" fill="#A5E31F"/>
<path fill-rule="evenodd" clip-rule="evenodd" d="M90.868 3.83242C90.547 3.06042 89.453 3.06042 89.132 3.83242L87.302 8.23342L82.549 8.61442C81.716 8.68142 81.378 9.72142 82.013 10.2654L85.633 13.3674L84.527 18.0044C84.333 18.8174 85.218 19.4604 85.932 19.0244L90 16.5394L94.069 19.0244C94.782 19.4604 95.667 18.8174 95.473 18.0044L94.367 13.3674L97.987 10.2654C98.622 9.72142 98.284 8.68142 97.451 8.61542L92.699 8.23342L90.868 3.83242Z" fill="#A5E31F"/>
</svg>
