<svg width="12" height="13" viewBox="0 0 12 13" fill="none" xmlns="http://www.w3.org/2000/svg">
<path d="M10.6366 5.48711L10.6366 5.48714L10.6428 5.49044C10.826 5.58785 10.9792 5.73327 11.0861 5.91112C11.1929 6.08896 11.2494 6.29253 11.2494 6.50001C11.2494 6.70748 11.1929 6.91105 11.0861 7.08889C10.9792 7.26674 10.826 7.41216 10.6428 7.50957L10.6428 7.50954L10.6367 7.51288L2.54502 11.913L2.54473 11.9132C1.7179 12.3633 0.75 11.7633 0.75 10.9008V2.09988C0.75 1.23706 1.71772 0.637056 2.54498 1.08635C2.54506 1.0864 2.54515 1.08644 2.54523 1.08649L10.6366 5.48711Z" stroke="white" stroke-width="1.5"/>
</svg>
