<svg width="115" height="28" viewBox="0 0 115 28" fill="none" xmlns="http://www.w3.org/2000/svg">
<path d="M13.0159 4.90001C13.42 3.65624 15.1796 3.65623 15.5837 4.9L17.0276 9.34393C17.2084 9.90016 17.7267 10.2768 18.3116 10.2768H22.9842C24.292 10.2768 24.8357 11.9502 23.7777 12.7189L19.9975 15.4654C19.5243 15.8092 19.3263 16.4185 19.5071 16.9748L20.951 21.4187C21.3551 22.6625 19.9316 23.6967 18.8735 22.928L15.0933 20.1815C14.6202 19.8378 13.9795 19.8378 13.5063 20.1815L9.72607 22.928C8.66805 23.6967 7.2445 22.6625 7.64863 21.4187L9.09255 16.9748C9.27328 16.4185 9.07529 15.8092 8.60213 15.4654L4.82191 12.7189C3.76389 11.9502 4.30764 10.2768 5.61541 10.2768H10.288C10.8729 10.2768 11.3912 9.90016 11.572 9.34393L13.0159 4.90001Z" fill="#FFBE1A"/>
<path d="M34.6155 4.90001C35.0196 3.65624 36.7792 3.65623 37.1833 4.9L38.6273 9.34393C38.808 9.90016 39.3263 10.2768 39.9112 10.2768H44.5838C45.8916 10.2768 46.4353 11.9502 45.3773 12.7189L41.5971 15.4654C41.1239 15.8092 40.9259 16.4185 41.1067 16.9748L42.5506 21.4187C42.9547 22.6625 41.5312 23.6967 40.4732 22.928L36.6929 20.1815C36.2198 19.8378 35.5791 19.8378 35.1059 20.1815L31.3257 22.928C30.2677 23.6967 28.8441 22.6625 29.2482 21.4187L30.6922 16.9748C30.8729 16.4185 30.6749 15.8092 30.2017 15.4654L26.4215 12.7189C25.3635 11.9502 25.9072 10.2768 27.215 10.2768H31.8876C32.4725 10.2768 32.9908 9.90016 33.1716 9.34393L34.6155 4.90001Z" fill="#FFBE1A"/>
<path d="M56.2161 4.90001C56.6202 3.65624 58.3798 3.65623 58.7839 4.9L60.2278 9.34393C60.4086 9.90016 60.9269 10.2768 61.5118 10.2768H66.1844C67.4922 10.2768 68.0359 11.9502 66.9779 12.7189L63.1977 15.4654C62.7245 15.8092 62.5265 16.4185 62.7073 16.9748L64.1512 21.4187C64.5553 22.6625 63.1318 23.6967 62.0737 22.928L58.2935 20.1815C57.8204 19.8378 57.1796 19.8378 56.7065 20.1815L52.9263 22.928C51.8682 23.6967 50.4447 22.6625 50.8488 21.4187L52.2927 16.9748C52.4735 16.4185 52.2755 15.8092 51.8023 15.4654L48.0221 12.7189C46.9641 11.9502 47.5078 10.2768 48.8156 10.2768H53.4882C54.0731 10.2768 54.5914 9.90016 54.7722 9.34393L56.2161 4.90001Z" fill="#FFBE1A"/>
<path d="M77.8158 4.90001C78.2199 3.65624 79.9795 3.65623 80.3837 4.9L81.8276 9.34393C82.0083 9.90016 82.5266 10.2768 83.1115 10.2768H87.7841C89.0919 10.2768 89.6356 11.9502 88.5776 12.7189L84.7974 15.4654C84.3242 15.8092 84.1263 16.4185 84.307 16.9748L85.7509 21.4187C86.155 22.6625 84.7315 23.6967 83.6735 22.928L79.8932 20.1815C79.4201 19.8378 78.7794 19.8378 78.3062 20.1815L74.526 22.928C73.468 23.6967 72.0444 22.6625 72.4486 21.4187L73.8925 16.9748C74.0732 16.4185 73.8752 15.8092 73.4021 15.4654L69.6218 12.7189C68.5638 11.9502 69.1076 10.2768 70.4153 10.2768H75.088C75.6728 10.2768 76.1912 9.90016 76.3719 9.34393L77.8158 4.90001Z" fill="#FFBE1A"/>
<path d="M99.4163 4.90001C99.8204 3.65624 101.58 3.65623 101.984 4.9L103.428 9.34393C103.609 9.90016 104.127 10.2768 104.712 10.2768H109.385C110.692 10.2768 111.236 11.9502 110.178 12.7189L106.398 15.4654C105.925 15.8092 105.727 16.4185 105.907 16.9748L107.351 21.4187C107.755 22.6625 106.332 23.6967 105.274 22.928L101.494 20.1815C101.021 19.8378 100.38 19.8378 99.9067 20.1815L96.1265 22.928C95.0684 23.6967 93.6449 22.6625 94.049 21.4187L95.4929 16.9748C95.6737 16.4185 95.4757 15.8092 95.0025 15.4654L91.2223 12.7189C90.1643 11.9502 90.708 10.2768 92.0158 10.2768H96.6884C97.2733 10.2768 97.7916 9.90016 97.9724 9.34393L99.4163 4.90001Z" fill="#FFBE1A"/>
</svg>
