<svg width="12" height="13" viewBox="0 0 12 13" fill="none" xmlns="http://www.w3.org/2000/svg">
<path opacity="0.8" d="M9.583 2.04069L9.58297 2.04059C9.53549 1.862 9.45358 1.69477 9.3421 1.54842C9.23063 1.40207 9.09179 1.27949 8.93366 1.18752L9.18503 0.755301L8.93365 1.18752C8.77553 1.09555 8.60113 1.03595 8.42042 1.01197C8.23973 0.988 8.0561 1.0001 7.87998 1.04761C7.87998 1.04761 7.87997 1.04762 7.87996 1.04762L3.56207 2.21267L3.56184 2.21274C3.38566 2.26018 3.22029 2.34217 3.07521 2.45419C2.93013 2.56621 2.80816 2.70609 2.71643 2.86597C2.62469 3.02586 2.56505 3.20255 2.54103 3.38595C2.51701 3.56931 2.5291 3.75563 2.57657 3.93422L9.583 2.04069ZM9.583 2.04069L11.4524 9.06565C11.4999 9.24424 11.512 9.43057 11.488 9.61395C11.464 9.79732 11.4044 9.974 11.3127 10.1339C11.2211 10.2938 11.0992 10.4336 10.9541 10.5457C10.8091 10.6577 10.6438 10.7398 10.4677 10.7873L10.4676 10.7873L6.14968 11.9523L6.14965 11.9523C5.79418 12.0483 5.41532 11.9982 5.0961 11.8126L4.84483 12.2449L5.0961 11.8126C4.77676 11.627 4.5427 11.3206 4.44665 10.9599C4.44665 10.9599 4.44665 10.9599 4.44664 10.9599L2.5766 3.93435L9.583 2.04069ZM3.94241 3.58626L3.94241 3.58626C4.02006 3.45017 4.12379 3.33063 4.24778 3.23465C4.37179 3.13865 4.51359 3.06813 4.6651 3.0273C4.81662 2.98647 4.97471 2.97617 5.13026 2.99703C5.2858 3.01789 5.43557 3.06948 5.57096 3.14868C5.70634 3.22789 5.82462 3.3331 5.91912 3.45813C6.01363 3.58315 6.08253 3.72555 6.12205 3.87711C6.20134 4.18118 6.15792 4.50461 6.00084 4.77695C5.84369 5.0494 5.58514 5.2491 5.28091 5.33109L5.1508 4.84832L5.2809 5.3311C4.97658 5.41311 4.6525 5.37031 4.37985 5.2125C4.10733 5.05478 3.90893 4.79542 3.8268 4.49201C3.78588 4.34083 3.77503 4.18306 3.79484 4.02772M3.94241 3.58626L3.79484 4.02771C3.79484 4.02771 3.79484 4.02772 3.79484 4.02772M3.94241 3.58626C3.86475 3.72234 3.81465 3.87237 3.79484 4.02772M3.94241 3.58626L3.79484 4.02772M2.81576 11.3953C2.83433 11.4656 2.85532 11.535 2.87868 11.6035C2.83335 11.5644 2.7903 11.5221 2.74988 11.4769C2.50251 11.2002 2.37386 10.8352 2.39326 10.462L2.39326 10.462L2.42166 9.91541L2.81566 11.3949C2.81569 11.3951 2.81572 11.3952 2.81576 11.3953ZM0.703516 10.5854C0.672706 10.5344 0.645075 10.4814 0.620839 10.4265C0.546218 10.2578 0.505287 10.0757 0.500479 9.89078C0.495671 9.70586 0.527085 9.52186 0.592851 9.34933L0.592891 9.34923L0.787076 8.83946L0.70753 10.3731C0.707524 10.3732 0.707519 10.3733 0.707514 10.3734C0.707513 10.3734 0.707512 10.3734 0.707512 10.3734C0.703782 10.4445 0.702474 10.5152 0.703516 10.5854Z" stroke="white"/>
</svg>
